<svg width="19" height="19" viewBox="0 0 19 19" fill="none" xmlns="http://www.w3.org/2000/svg">
<path d="M17.1986 8.53813L9.54028 16.1965C8.60208 17.1347 7.3296 17.6617 6.00278 17.6617C4.67596 17.6617 3.40348 17.1347 2.46528 16.1965C1.52708 15.2583 1 13.9858 1 12.659C1 11.3321 1.52708 10.0597 2.46528 9.12147L9.60695 1.9798C10.2324 1.35323 11.0812 1.00078 11.9665 1C12.8518 0.99922 13.7012 1.35017 14.3278 1.97563C14.9544 2.6011 15.3068 3.44986 15.3076 4.33519C15.3084 5.22052 14.9574 6.06989 14.3319 6.69647L7.17361 13.8381C6.86088 14.1509 6.43672 14.3266 5.99445 14.3266C5.55217 14.3266 5.12801 14.1509 4.81528 13.8381C4.50255 13.5254 4.32685 13.1012 4.32685 12.659C4.32685 12.2167 4.50255 11.7925 4.81528 11.4798L11.8903 4.41313" stroke="#B9B9B9" stroke-width="2" stroke-linecap="round" stroke-linejoin="round"/>
</svg>
